# xmcd
#
# Track frame offsets:
# 182
# 14152
# 24990
# 36472
# 49040
# 60207
# 73447
# 83985
# 96242
# 110485
# 122905
# 135372
# 145200
# 156455
#
# Disc length: 2261 seconds
#
#
# Revision: 0
# Processed by: cddbd v1.5PL3 Copyright (c) Steve Scherf et al.
# Submitted via: FreeRIP 2.51 
#
DISCID=ca08d30e
DTITLE=Howlin' Wolf - 28 Great Blues Ballads - CD2
DYEAR=1993
DGENRE=blues
TTITLE0=Smokestack lightnin'
TTITLE1=Wang dang doodle
TTITLE2=Moanin' at midnight
TTITLE3=Killing floor
TTITLE4=My country sugar mama
TTITLE5=Everybody's in the mood
TTITLE6=Built for comfort
TTITLE7=Goin' back home
TTITLE8=I walked from Dallas
TTITLE9=Little baby
TTITLE10=I better go now
TTITLE11=Shake for me
TTITLE12=Sittin' on the top of the world
TTITLE13=Tell me
EXTD=2CD
EXTT0=
EXTT1=
EXTT2=
EXTT3=
EXTT4=
EXTT5=
EXTT6=
EXTT7=
EXTT8=
EXTT9=
EXTT10=
EXTT11=
EXTT12=
EXTT13=
PLAYORDER=
